<svg width="1317" height="180" viewBox="0 0 1317 180" fill="none" xmlns="http://www.w3.org/2000/svg">
<g clip-path="url(#clip0_433_3070)">
<path d="M540.614 4.43106V6.43134H544.673C556.924 6.43134 556.95 19.4205 556.95 25.8012V158.453C556.95 169.442 557.102 177.645 545.611 177.645H543.252V179.772H610.927C622.393 179.928 633.772 177.775 644.384 173.442C654.227 169.349 663.056 163.162 670.257 155.313C677.625 147.078 683.266 137.452 686.846 127.005C690.898 115.124 692.888 102.639 692.731 90.0887C692.872 78.2065 690.835 66.3987 686.719 55.2483C682.976 45.1711 677.239 35.9489 669.851 28.1306C662.571 20.5293 653.75 14.5647 643.979 10.6345C633.593 6.47478 622.498 4.36798 611.308 4.43106M669.902 96.5706C670.209 109.535 668.759 122.481 665.59 135.057C663.398 143.843 659.446 152.094 653.973 159.314C649.545 164.976 643.675 169.348 636.978 171.974C630.391 174.427 623.411 175.663 616.381 175.62L582.518 175.012V8.65951H616.381C623.324 8.63958 630.209 9.92814 636.673 12.4575C643.34 15.1298 649.227 19.4308 653.795 24.9656C659.277 31.7855 663.285 39.6653 665.565 48.1081C668.699 59.6562 670.152 71.5947 669.877 83.5561L669.902 96.5706Z" fill="white"/>
<path d="M727.989 6.43143H732.301C744.654 6.43143 744.4 19.4459 744.4 25.8519V158.858C744.147 164.707 742.447 177.645 732.149 177.645H727.989V179.772H785.923V177.696H781.738C773.342 177.696 770.653 169.037 769.816 162.681C769.816 162.681 769.816 60.1858 769.816 25.9532C769.816 19.4459 769.385 6.43143 782.093 6.43143H786.025V4.43115H727.989V6.43143Z" fill="white"/>
<path d="M965.181 179.772V177.544H964.674C957.394 177.544 953.006 171.366 950.52 165.796L947.983 157.997L947.755 156.984C947.755 156.984 947.755 157.313 947.933 157.82L896.821 4.43115H893.676L841.753 160.428C839.495 166.378 833.991 177.519 824.251 177.519H820.598V179.772H852.939V177.544C842.996 177.544 844.873 165.998 846.42 160.225L857.632 125.942H910.164L921.857 161.694C923.48 167.745 924.673 177.544 915.516 177.544H911.863V179.772M859.179 121.815L883.758 48.1082L908.845 121.713L859.179 121.815Z" fill="white"/>
<path d="M358.312 6.45675H361.788C374.293 6.45675 374.47 17.4963 374.47 24.6112L374.267 132.55C373.995 140.381 375.844 148.14 379.62 155.009C383.022 160.872 387.725 165.878 393.368 169.644C399.151 173.415 405.584 176.084 412.341 177.519C419.113 179.017 426.027 179.781 432.963 179.798C449.535 179.798 462.429 175.865 471.645 167.998C480.862 160.132 485.478 148.316 485.495 132.55V25.8519C485.495 19.4459 486.738 6.43143 497.594 6.43143H505.635V4.43115H460.992V6.43143H469.261C480.955 6.43143 481.36 19.4459 481.36 25.8519V132.55C481.453 138.756 480.342 144.921 478.088 150.705C476.12 155.719 473.095 160.252 469.217 163.996C465.339 167.74 460.7 170.607 455.614 172.404C450.28 174.289 444.658 175.231 439 175.189C426.825 175.189 417.203 171.51 410.134 164.15C403.066 156.79 399.54 146.257 399.557 132.55V25.5734C399.557 19.4459 399.126 6.43143 411.808 6.45675H416.374V4.43115H358.312" fill="white"/>
<path d="M176.036 28.5864H178.141C178.75 14.8629 190.824 8.48228 202.67 8.48228L236.685 8.60889C236.685 8.60889 236.685 122.549 236.685 160.529C236.685 165.593 235.823 177.62 226.691 177.62H220.147V179.772H278.716V177.671H272.222C262.253 177.671 261.924 165.644 261.924 160.554C261.924 126.499 261.924 8.63421 261.924 8.63421C261.924 8.63421 261.924 8.5076 295.178 8.5076C307.074 8.5076 318.184 14.2299 319.706 28.6117H321.786V4.40576H176.036V28.5864Z" fill="white"/>
<path d="M144.025 103.66C131.495 56.2609 33.6094 72.1618 35.106 31.4979C35.6894 15.5716 54.2315 1.84815 83.7062 4.73463C120.892 8.40603 126.32 28.8646 126.32 28.8646H128.349V4.88655C113.669 2.49038 98.8666 0.909671 84.0106 0.151705C45.4805 -1.46878 18.9482 9.46947 18.1619 37.5494C17.756 53.6529 28.6378 64.1354 43.502 70.8958L99.7118 90.924" fill="white"/>
<path d="M0 66.5156C10.1462 115.383 111.608 107.23 110.035 145.691C109.097 170.075 83.3509 173.721 67.2946 173.543C37.1858 173.088 18.6943 158.453 12.9617 140.703H11.1354V167.644C25.9126 174.127 41.6523 178.156 57.7318 179.57C83.0719 181.798 126.827 176.227 126.827 139.26C126.827 121.865 118.228 111.408 99.6862 102.647L43.5018 82.3913" fill="white"/>
<path d="M1193.62 125.841H1274.41V160.63C1274.01 166.834 1271.87 177.62 1262.24 177.62H1257.29V179.772H1315.2V177.696H1310.3C1300.46 177.696 1298.46 166.606 1298.1 160.453V125.917H1316.97L1315.2 121.815H1298.1L1297.7 4.43115H1294.27M1274.41 121.815H1206.23L1274.49 39.8285L1274.41 121.815Z" fill="white"/>
<path d="M1059.82 169.644C1073.79 175.583 1088.71 179.012 1103.88 179.772C1131.25 180.304 1149.39 176.101 1164.53 163.795C1170.4 158.813 1175.09 152.598 1178.27 145.594C1181.45 138.59 1183.03 130.971 1182.92 123.283C1181.42 85.1512 1149.38 67.7057 1111.72 67.7057C1097.85 67.3878 1084.13 70.5941 1071.84 77.0235L1081.2 28.5863H1166.48L1185.2 4.55762H1079.55L1064.72 82.4926L1066.9 83.4548C1078.16 76.643 1091.12 73.1331 1104.29 73.3268C1135.36 73.3268 1160.6 92.1902 1158.77 126.246C1156.99 159.592 1126.81 172.024 1098.93 173.29C1080.47 174.126 1059.84 166.834 1059.84 166.834" fill="white"/>
</g>
<defs>
<clipPath id="clip0_433_3070">
<rect width="1317" height="180" fill="white"/>
</clipPath>
</defs>
</svg>
