<svg width="211" height="56" viewBox="0 0 211 56" fill="none" xmlns="http://www.w3.org/2000/svg">
<g clip-path="url(#clip0_1_47)">
<path d="M87.5977 0.689179V1.00033H88.214C90.0745 1.00033 90.0783 3.02087 90.0783 4.01342V24.6481C90.0783 26.3575 90.1015 27.6336 88.3565 27.6336H87.9983V27.9645H98.2754C100.017 27.9887 101.745 27.6538 103.356 26.9798C104.851 26.3431 106.192 25.3807 107.285 24.1597C108.404 22.8786 109.261 21.3814 109.804 19.7563C110.42 17.908 110.722 15.9659 110.698 14.0137C110.72 12.1654 110.41 10.3286 109.785 8.59409C109.217 7.02653 108.346 5.59195 107.224 4.37577C106.118 3.19335 104.779 2.26552 103.295 1.65415C101.717 1.00709 100.032 0.679366 98.3332 0.689179M107.231 15.022C107.278 17.0387 107.058 19.0525 106.576 21.0088C106.244 22.3754 105.643 23.659 104.812 24.782C104.14 25.6628 103.249 26.3429 102.231 26.7514C101.231 27.1331 100.171 27.3253 99.1036 27.3185L93.9612 27.224V1.34694H99.1036C100.158 1.34384 101.204 1.54428 102.185 1.93774C103.198 2.35343 104.092 3.02247 104.785 3.88344C105.618 4.94431 106.226 6.17006 106.573 7.48338C107.049 9.27975 107.269 11.1369 107.227 12.9975L107.231 15.022Z" fill="white"/>
<path d="M116.053 1.00061H116.708C118.584 1.00061 118.545 3.02508 118.545 4.02157V24.7114C118.506 25.6212 118.248 27.6339 116.684 27.6339H116.053V27.9647H124.851V27.6418H124.215C122.94 27.6418 122.532 26.2947 122.405 25.3061C122.405 25.3061 122.405 9.3624 122.405 4.03732C122.405 3.02508 122.339 1.00061 124.269 1.00061H124.866V0.689453H116.053V1.00061Z" fill="white"/>
<path d="M152.073 27.9647V27.6181H151.996C150.89 27.6181 150.224 26.6571 149.846 25.7906L149.461 24.5775L149.426 24.4199C149.426 24.4199 149.426 24.4711 149.453 24.5499L141.691 0.689453H141.214L133.329 24.9556C132.986 25.8812 132.15 27.6142 130.671 27.6142H130.116V27.9647H135.028V27.6181C133.518 27.6181 133.803 25.8221 134.038 24.9241L135.74 19.5911H143.718L145.493 25.1525C145.74 26.0939 145.921 27.6181 144.53 27.6181H143.976V27.9647M135.975 18.9491L139.708 7.48366L143.517 18.9334L135.975 18.9491Z" fill="white"/>
<path d="M59.9136 1.00455H60.4413C62.3403 1.00455 62.3673 2.72181 62.3673 3.82857L62.3365 20.6191C62.2951 21.8372 62.5759 23.0442 63.1493 24.1127C63.666 25.0246 64.3802 25.8034 65.237 26.3893C66.1154 26.9758 67.0923 27.3911 68.1183 27.6142C69.1467 27.8472 70.1967 27.9661 71.25 27.9687C73.7667 27.9687 75.7248 27.3569 77.1243 26.1333C78.5239 24.9096 79.225 23.0716 79.2275 20.6191V4.02157C79.2275 3.02508 79.4163 1.00061 81.0649 1.00061H82.286V0.689453H75.5065V1.00061H76.7623C78.538 1.00061 78.5997 3.02508 78.5997 4.02157V20.6191C78.6137 21.5844 78.445 22.5434 78.1027 23.4431C77.8039 24.2231 77.3444 24.9282 76.7555 25.5106C76.1667 26.093 75.4622 26.5391 74.6899 26.8186C73.8798 27.1118 73.0261 27.2584 72.1668 27.2518C70.3178 27.2518 68.8567 26.6794 67.7832 25.5346C66.7098 24.3897 66.1744 22.7513 66.1769 20.6191V3.97824C66.1769 3.02508 66.1115 1.00061 68.0375 1.00455H68.7308V0.689453H59.9136" fill="white"/>
<path d="M32.2329 4.44698H32.5526C32.6451 2.31222 34.4786 1.31967 36.2775 1.31967L41.4431 1.33937C41.4431 1.33937 41.4431 19.0634 41.4431 24.9714C41.4431 25.7591 41.3121 27.63 39.9254 27.63H38.9315V27.9648H47.8258V27.6379H46.8397C45.3259 27.6379 45.2758 25.767 45.2758 24.9753C45.2758 19.6778 45.2758 1.3433 45.2758 1.3433C45.2758 1.3433 45.2758 1.32361 50.3258 1.32361C52.1324 1.32361 53.8196 2.21375 54.0507 4.45092H54.3665V0.685547H32.2329V4.44698Z" fill="white"/>
<path d="M27.3717 16.125C25.4688 8.75181 10.6039 11.2253 10.8312 4.89979C10.9198 2.42237 13.7356 0.287609 18.2116 0.736617C23.8586 1.30772 24.683 4.49017 24.683 4.49017H24.9911V0.760249C22.7618 0.387513 20.5139 0.141624 18.2578 0.0237179C12.4066 -0.228357 8.37743 1.47315 8.25802 5.84113C8.19638 8.34613 9.84889 9.97674 12.1062 11.0284L20.6422 14.1438" fill="white"/>
<path d="M5.5 10.3467C7.0408 17.9483 22.4488 16.6801 22.21 22.6629C22.0675 26.4558 18.1577 27.023 15.7194 26.9954C11.147 26.9245 8.33893 24.648 7.46838 21.887H7.19103V26.0777C9.4351 27.0863 11.8253 27.7129 14.2672 27.9328C18.1153 28.2794 24.76 27.4129 24.76 21.6625C24.76 18.9566 23.4542 17.3299 20.6384 15.9672L12.1062 12.8162" fill="white"/>
<path d="M186.764 19.5754H199.032V24.9871C198.971 25.9521 198.647 27.63 197.183 27.63H196.432V27.9647H205.226V27.6418H204.483C202.988 27.6418 202.684 25.9166 202.63 24.9595V19.5872H205.496L205.226 18.9491H202.63L202.568 0.689453H202.048M199.032 18.9491H188.678L199.044 6.19571L199.032 18.9491Z" fill="white"/>
<path d="M166.444 26.3891C168.567 27.313 170.832 27.8463 173.135 27.9646C177.292 28.0473 180.046 27.3935 182.345 25.4793C183.236 24.7043 183.949 23.7374 184.432 22.648C184.914 21.5585 185.156 20.3734 185.138 19.1774C184.911 13.2458 180.046 10.532 174.326 10.532C172.22 10.4826 170.136 10.9813 168.27 11.9815L169.692 4.44678H182.642L185.485 0.708984H169.441L167.188 12.8322L167.519 12.9819C169.23 11.9223 171.197 11.3763 173.197 11.4064C177.916 11.4064 181.748 14.3407 181.471 19.6382C181.201 24.8255 176.617 26.7593 172.384 26.9563C169.58 27.0863 166.448 25.9519 166.448 25.9519" fill="white"/>
</g>
<path d="M1.32937 52V42.77H4.35837C7.01037 42.77 8.73937 44.629 8.73937 47.372C8.73937 50.063 7.02337 52 4.33237 52H1.32937ZM4.30637 50.96C6.30837 50.96 7.43937 49.348 7.43937 47.372C7.43937 45.318 6.33437 43.81 4.33237 43.81H2.56437V50.96H4.30637ZM12.5043 50.96H17.0803V52H11.2693V42.77H16.9893V43.81H12.5043V46.748H16.7683V47.788H12.5043V50.96ZM22.6819 52.221C20.3289 52.221 19.1329 50.947 18.9769 49.257L20.2249 49.075C20.3939 50.232 21.0959 51.246 22.7209 51.246C23.7219 51.246 24.7749 50.817 24.7749 49.621C24.7749 48.529 24.0989 48.178 23.0199 47.957L21.6809 47.684C20.3679 47.411 19.3669 46.722 19.3669 45.136C19.3669 43.589 20.6149 42.549 22.5779 42.549C24.4109 42.549 25.8149 43.368 25.9969 45.175L24.7619 45.435C24.6059 44.2 23.9169 43.524 22.5519 43.524C21.4209 43.524 20.6409 44.083 20.6409 45.019C20.6409 45.916 21.1219 46.384 22.1489 46.605L23.5009 46.891C24.9309 47.19 26.0489 47.827 26.0489 49.504C26.0489 50.934 24.9829 52.221 22.6819 52.221ZM29.8197 52H28.5847V42.77H29.8197V52ZM36.3931 52.221C33.8711 52.221 32.3501 50.167 32.3501 47.385C32.3501 44.564 33.8711 42.549 36.6011 42.549C39.1491 42.549 39.9681 44.317 40.1241 45.344L38.9021 45.513C38.7721 44.733 38.2131 43.589 36.5621 43.589C34.6771 43.589 33.6111 45.149 33.6111 47.398C33.6111 49.517 34.5731 51.181 36.5751 51.181C38.8501 51.181 39.1881 49.257 39.1881 48.373V48.217H36.4841V47.177H40.2931V52H39.3961L39.2271 50.518C38.8241 51.519 37.7711 52.221 36.3931 52.221ZM42.8532 52V42.77H44.3482L48.2612 49.491C48.5212 49.946 48.6902 50.284 48.8332 50.674H48.8592C48.8332 50.349 48.8202 50.011 48.8202 49.452V42.77H49.9252V52H48.4302L44.5172 45.279C44.2572 44.824 44.0882 44.512 43.9452 44.096H43.9192C43.9452 44.421 43.9582 44.759 43.9582 45.318V52H42.8532ZM58.362 42.12H59.311V55.133H58.362V42.12ZM66.9017 52L70.3987 42.77H71.6207L75.1177 52H73.8437L72.8947 49.335H69.1247L68.1757 52H66.9017ZM69.4887 48.295H72.5307L71.2437 44.694C71.1657 44.486 71.1007 44.265 71.0227 43.992H70.9967C70.9187 44.265 70.8537 44.486 70.7757 44.694L69.4887 48.295ZM77.001 52V42.77H80.42C82.8381 42.77 83.475 44.122 83.475 45.474C83.475 46.514 82.9421 47.645 81.395 47.996L83.761 52H82.37L80.108 48.165H78.236V52H77.001ZM82.175 45.474C82.175 44.525 81.694 43.81 80.277 43.81H78.236V47.125H80.277C81.707 47.125 82.175 46.397 82.175 45.474ZM87.9159 52V43.81H85.0169V42.77H92.0499V43.81H89.1509V52H87.9159ZM99.6441 42.12H100.593V55.133H99.6441V42.12ZM108.184 52L111.681 42.77H112.903L116.4 52H115.126L114.177 49.335H110.407L109.458 52H108.184ZM110.771 48.295H113.813L112.526 44.694C112.448 44.486 112.383 44.265 112.305 43.992H112.279C112.201 44.265 112.136 44.486 112.058 44.694L110.771 48.295ZM118.283 52V42.77H121.702C124.12 42.77 124.757 44.122 124.757 45.474C124.757 46.514 124.224 47.645 122.677 47.996L125.043 52H123.652L121.39 48.165H119.518V52H118.283ZM123.457 45.474C123.457 44.525 122.976 43.81 121.559 43.81H119.518V47.125H121.559C122.989 47.125 123.457 46.397 123.457 45.474ZM131.16 52.221C128.3 52.221 127 50.037 127 47.359C127 44.525 128.456 42.549 131.199 42.549C133.448 42.549 134.618 43.875 134.852 45.786L133.591 45.916C133.409 44.512 132.564 43.589 131.134 43.589C129.327 43.589 128.3 45.097 128.3 47.346C128.3 49.53 129.275 51.181 131.16 51.181C132.473 51.181 133.396 50.297 133.656 48.893L134.852 49.101C134.501 50.843 133.383 52.221 131.16 52.221ZM144.449 42.77V52H143.214V47.801H138.56V52H137.325V42.77H138.56V46.761H143.214V42.77H144.449ZM148.411 52H147.176V42.77H148.411V52ZM153.191 52V43.81H150.292V42.77H157.325V43.81H154.426V52H153.191ZM160.445 50.96H165.021V52H159.21V42.77H164.93V43.81H160.445V46.748H164.709V47.788H160.445V50.96ZM171.16 52.221C168.3 52.221 167 50.037 167 47.359C167 44.525 168.456 42.549 171.199 42.549C173.448 42.549 174.618 43.875 174.852 45.786L173.591 45.916C173.409 44.512 172.564 43.589 171.134 43.589C169.327 43.589 168.3 45.097 168.3 47.346C168.3 49.53 169.275 51.181 171.16 51.181C172.473 51.181 173.396 50.297 173.656 48.893L174.852 49.101C174.501 50.843 173.383 52.221 171.16 52.221ZM179.138 52V43.81H176.239V42.77H183.272V43.81H180.373V52H179.138ZM185.185 42.77H186.42V48.698C186.42 50.18 187.239 51.129 188.734 51.129C190.229 51.129 191.048 50.18 191.048 48.698V42.77H192.283V48.776C192.283 50.83 191.022 52.221 188.734 52.221C186.446 52.221 185.185 50.83 185.185 48.776V42.77ZM195.022 52V42.77H198.441C200.859 42.77 201.496 44.122 201.496 45.474C201.496 46.514 200.963 47.645 199.416 47.996L201.782 52H200.391L198.129 48.165H196.257V52H195.022ZM200.196 45.474C200.196 44.525 199.715 43.81 198.298 43.81H196.257V47.125H198.298C199.728 47.125 200.196 46.397 200.196 45.474ZM205.295 50.96H209.871V52H204.06V42.77H209.78V43.81H205.295V46.748H209.559V47.788H205.295V50.96Z" fill="white"/>
<defs>
<clipPath id="clip0_1_47">
<rect width="200" height="28" fill="white" transform="translate(5.5)"/>
</clipPath>
</defs>
</svg>
