<svg width="146" height="20" viewBox="0 0 146 20" fill="none" xmlns="http://www.w3.org/2000/svg">
<g clip-path="url(#clip0_1_1052)">
<path d="M59.9312 0.49234V0.714594H60.3811C61.7392 0.714594 61.7421 2.15783 61.7421 2.8668V17.6059C61.7421 18.8268 61.7589 19.7384 60.4851 19.7384H60.2236V19.9747H67.7259C68.9969 19.992 70.2584 19.7528 71.4349 19.2714C72.526 18.8166 73.5048 18.1292 74.3031 17.257C75.1199 16.342 75.7452 15.2725 76.1421 14.1117C76.5913 12.7915 76.812 11.4043 76.7945 10.0099C76.8102 8.68961 76.5843 7.37763 76.1281 6.1387C75.7131 5.01902 75.0771 3.99432 74.2581 3.12562C73.451 2.28104 72.4732 1.6183 71.3899 1.18161C70.2386 0.71942 69.0086 0.485331 67.7681 0.49234M74.2637 10.7301C74.2978 12.1705 74.137 13.609 73.7857 15.0063C73.5427 15.9825 73.1046 16.8993 72.4978 17.7015C72.007 18.3306 71.3563 18.8164 70.6138 19.1082C69.8836 19.3808 69.1099 19.5181 68.3305 19.5133L64.5765 19.4458V0.962167H68.3305C69.1002 0.959954 69.8634 1.10313 70.5801 1.38417C71.3191 1.68109 71.9718 2.15897 72.4781 2.77396C73.0859 3.53172 73.5302 4.40725 73.7829 5.34534C74.1304 6.62846 74.2914 7.95497 74.2609 9.28401L74.2637 10.7301Z" fill="white"/>
<path d="M80.7036 0.714441H81.1817C82.5511 0.714441 82.523 2.1605 82.523 2.87227V17.6507C82.4948 18.3006 82.3064 19.7382 81.1648 19.7382H80.7036V19.9745H87.1261V19.7438H86.6622C85.7314 19.7438 85.4333 18.7817 85.3405 18.0755C85.3405 18.0755 85.3405 6.68715 85.3405 2.88352C85.3405 2.1605 85.2927 0.714441 86.7015 0.714441H87.1374V0.492188H80.7036V0.714441Z" fill="white"/>
<path d="M106.998 19.9745V19.727H106.942C106.135 19.727 105.648 19.0405 105.373 18.4216L105.091 17.5551L105.066 17.4425C105.066 17.4425 105.066 17.4791 105.086 17.5354L99.4197 0.492188H99.071L93.3149 17.8251C93.0646 18.4863 92.4544 19.7241 91.3747 19.7241H90.9697V19.9745H94.555V19.727C93.4527 19.727 93.6608 18.4441 93.8323 17.8026L95.0752 13.9934H100.899L102.195 17.9658C102.375 18.6382 102.507 19.727 101.492 19.727H101.087V19.9745M95.2467 13.5348L97.9715 5.34519L100.753 13.5236L95.2467 13.5348Z" fill="white"/>
<path d="M39.7217 0.717254H40.1069C41.4932 0.717254 41.5129 1.94387 41.5129 2.73442L41.4904 14.7277C41.4602 15.5977 41.6652 16.4598 42.0837 17.2231C42.461 17.8745 42.9823 18.4307 43.6078 18.8492C44.249 19.2681 44.9621 19.5648 45.7112 19.7241C46.4619 19.8906 47.2284 19.9755 47.9973 19.9773C49.8344 19.9773 51.2639 19.5403 52.2855 18.6663C53.3072 17.7923 53.819 16.4794 53.8209 14.7277V2.87227C53.8209 2.1605 53.9587 0.714441 55.1622 0.714441H56.0536V0.492188H51.1045V0.714441H52.0212C53.3175 0.714441 53.3625 2.1605 53.3625 2.87227V14.7277C53.3728 15.4172 53.2496 16.1021 52.9998 16.7448C52.7816 17.3019 52.4462 17.8056 52.0163 18.2216C51.5864 18.6376 51.0722 18.9562 50.5084 19.1559C49.9171 19.3653 49.2938 19.47 48.6665 19.4653C47.3168 19.4653 46.2501 19.0564 45.4665 18.2387C44.6829 17.421 44.2921 16.2506 44.2939 14.7277V2.84132C44.2939 2.1605 44.2461 0.714441 45.6521 0.717254H46.1583V0.492188H39.7217" fill="white"/>
<path d="M19.5151 3.17648H19.7485C19.816 1.65165 21.1545 0.942693 22.4677 0.942693L26.2385 0.95676C26.2385 0.95676 26.2385 13.6168 26.2385 17.8368C26.2385 18.3994 26.1429 19.7358 25.1306 19.7358H24.4051V19.9749H30.898V19.7414H30.1781C29.073 19.7414 29.0364 18.4051 29.0364 17.8396C29.0364 14.0556 29.0364 0.959573 29.0364 0.959573C29.0364 0.959573 29.0364 0.945506 32.7229 0.945506C34.0417 0.945506 35.2734 1.58132 35.4421 3.17929H35.6727V0.489746H19.5151V3.17648Z" fill="white"/>
<path d="M15.9664 11.5177C14.5773 6.25115 3.72591 8.01793 3.89182 3.49971C3.95649 1.73012 6.01204 0.205295 9.27954 0.526016C13.4019 0.933949 14.0036 3.20712 14.0036 3.20712H14.2286V0.542896C12.6012 0.276655 10.9602 0.10102 9.31328 0.0168019C5.04191 -0.163252 2.1006 1.05211 2.01343 4.1721C1.96843 5.96138 3.17477 7.1261 4.82258 7.87726L11.0539 10.1026" fill="white"/>
<path d="M0 7.39062C1.12479 12.8204 12.3726 11.9145 12.1983 16.1879C12.0943 18.8972 9.24011 19.3023 7.46014 19.2826C4.12234 19.232 2.07242 17.6058 1.43691 15.6337H1.23445V18.6271C2.87262 19.3475 4.6175 19.7951 6.40003 19.9522C9.20918 20.1997 14.0598 19.5808 14.0598 15.4733C14.0598 13.5406 13.1066 12.3787 11.051 11.4053L4.82252 9.15459" fill="white"/>
<path d="M132.323 13.9821H141.279V17.8477C141.234 18.5369 140.998 19.7354 139.929 19.7354H139.381V19.9745H145.8V19.7438H145.258C144.167 19.7438 143.945 18.5116 143.905 17.828V13.9906H145.997L145.8 13.5348H143.905L143.86 0.492188H143.481M141.279 13.5348H133.72L141.287 4.42523L141.279 13.5348Z" fill="white"/>
<path d="M117.489 18.8493C119.038 19.5092 120.692 19.8902 122.374 19.9746C125.408 20.0337 127.418 19.5667 129.097 18.1994C129.747 17.6458 130.268 16.9552 130.62 16.177C130.972 15.3989 131.149 14.5523 131.136 13.6981C130.97 9.46119 127.418 7.52281 123.243 7.52281C121.705 7.48748 120.184 7.84374 118.822 8.55811L119.86 3.1762H129.314L131.389 0.506348H119.677L118.032 9.16579L118.274 9.2727C119.522 8.51583 120.959 8.12585 122.419 8.14737C125.863 8.14737 128.661 10.2433 128.459 14.0272C128.262 17.7324 124.916 19.1137 121.825 19.2544C119.778 19.3473 117.492 18.537 117.492 18.537" fill="white"/>
</g>
<defs>
<clipPath id="clip0_1_1052">
<rect width="146" height="20" fill="white"/>
</clipPath>
</defs>
</svg>
