<svg width="730" height="584" viewBox="0 0 730 584" fill="none" xmlns="http://www.w3.org/2000/svg">
<g clip-path="url(#clip0_433_3069)">
<path d="M466.787 336.339C426.163 182.505 108.794 234.189 113.872 102.226C115.776 50.5677 175.848 5.96274 271.287 15.376C391.786 27.2503 409.381 93.701 409.381 93.701H415.931V15.858C368.452 8.11811 320.578 3.03567 272.531 0.634504C147.412 -4.74448 61.4172 30.7263 58.8528 121.788C57.3803 174.056 92.8241 208.055 141.013 229.825L323.133 294.829" fill="white"/>
<path d="M0 215.819C33.0064 374.423 361.369 347.908 356.647 472.716C353.625 551.828 270.145 563.651 218.096 562.941C120.473 561.621 60.681 514.099 42.0197 456.376H36.0785V543.784C36.0785 543.784 100.009 574.739 187.096 582.478C269.231 589.785 411.006 571.643 411.006 451.707C411.006 395.254 383.077 361.635 323.107 332.913L140.988 266.945" fill="white"/>
<path d="M590.662 523.106H681.912V562.357C681.43 569.385 679.119 581.564 668.151 581.564H662.667V583.924H728.096V581.564H722.561C711.44 581.564 709.206 569.03 708.774 562.078V523.182H730.101L728.07 518.513H708.774L708.292 385.84H704.433M682.014 518.513H604.906L681.988 425.853L682.014 518.513Z" fill="white"/>
<path d="M439.569 572.532C439.569 572.532 463.918 583.467 489.333 583.949C520.257 584.558 540.696 579.814 557.885 565.909C564.493 560.273 569.774 553.247 573.351 545.335C576.928 537.423 578.713 528.819 578.577 520.137C576.901 477.004 540.696 457.289 498.168 457.289C482.513 456.935 467.024 460.558 453.153 467.819L463.715 413.065H560.017L581.167 385.891H461.836L445.079 474.01L447.618 475.101C460.351 467.442 474.981 463.512 489.841 463.759C524.929 463.759 553.314 485.072 551.359 523.588C549.354 561.266 515.281 575.323 483.798 576.87C462.953 577.809 439.646 569.563 439.646 569.563" fill="white"/>
</g>
<defs>
<clipPath id="clip0_433_3069">
<rect width="730" height="584" fill="white"/>
</clipPath>
</defs>
</svg>
